<svg width="22" height="23" viewBox="0 0 22 23" fill="none" xmlns="http://www.w3.org/2000/svg">
<g id="entypo-social:facebook">
<path id="Vector" d="M18.7016 1.55371H3.30156C2.09156 1.55371 1.10156 2.54371 1.10156 3.75371V19.1537C1.10156 20.3648 2.09156 21.3537 3.30156 21.3537H11.0016V13.6537H8.80156V10.9312H11.0016V8.67621C11.0016 6.29581 12.3348 4.62381 15.1442 4.62381L17.1275 4.62601V7.49151H15.8108C14.7174 7.49151 14.3016 8.31211 14.3016 9.07331V10.9323H17.1264L16.5016 13.6537H14.3016V21.3537H18.7016C19.9116 21.3537 20.9016 20.3648 20.9016 19.1537V3.75371C20.9016 2.54371 19.9116 1.55371 18.7016 1.55371Z" fill="#00D6FB"/>
</g>
</svg>
