<svg width="49" height="49" viewBox="0 0 49 49" fill="none" xmlns="http://www.w3.org/2000/svg">
<g id="ph:strategy-thin">
<path id="Vector" d="M13.0161 29.8594C11.8046 29.8594 10.6204 30.2186 9.61318 30.8916C8.60593 31.5646 7.82088 32.5212 7.35729 33.6404C6.8937 34.7596 6.77241 35.9912 7.00874 37.1793C7.24508 38.3674 7.82842 39.4588 8.68502 40.3154C9.54162 41.172 10.633 41.7554 11.8211 41.9917C13.0093 42.228 14.2408 42.1067 15.36 41.6431C16.4792 41.1796 17.4358 40.3945 18.1088 39.3872C18.7818 38.38 19.1411 37.1958 19.1411 35.9844C19.1411 34.3599 18.4957 32.802 17.3471 31.6533C16.1984 30.5047 14.6405 29.8594 13.0161 29.8594ZM13.0161 40.5781C12.1075 40.5781 11.2193 40.3087 10.4639 39.8039C9.70846 39.2992 9.11967 38.5817 8.77198 37.7423C8.42429 36.9029 8.33332 35.9793 8.51057 35.0882C8.68782 34.1971 9.12533 33.3785 9.76778 32.7361C10.4102 32.0937 11.2288 31.6561 12.1199 31.4789C13.011 31.3016 13.9346 31.3926 14.774 31.7403C15.6134 32.088 16.3308 32.6768 16.8356 33.4322C17.3404 34.1877 17.6098 35.0758 17.6098 35.9844C17.6098 37.2027 17.1258 38.3712 16.2643 39.2326C15.4028 40.0941 14.2344 40.5781 13.0161 40.5781ZM7.115 20.8958L10.4014 17.6094L7.115 14.3229C6.97133 14.1793 6.89062 13.9844 6.89063 13.7812C6.89063 13.5781 6.97133 13.3832 7.115 13.2396C7.25866 13.0959 7.45351 13.0152 7.65668 13.0152C7.85985 13.0152 8.05469 13.0959 8.19836 13.2396L11.4848 16.526L14.7712 13.2396C14.9149 13.0959 15.1098 13.0152 15.3129 13.0152C15.5161 13.0152 15.7109 13.0959 15.8546 13.2396C15.9983 13.3832 16.079 13.5781 16.079 13.7812C16.079 13.9844 15.9983 14.1793 15.8546 14.3229L12.5682 17.6094L15.8546 20.8958C15.9257 20.967 15.9822 21.0514 16.0207 21.1443C16.0592 21.2373 16.079 21.3369 16.079 21.4375C16.079 21.5381 16.0592 21.6377 16.0207 21.7307C15.9822 21.8236 15.9257 21.908 15.8546 21.9792C15.7835 22.0503 15.699 22.1067 15.6061 22.1452C15.5131 22.1837 15.4135 22.2036 15.3129 22.2036C15.2123 22.2036 15.1127 22.1837 15.0198 22.1452C14.9268 22.1067 14.8424 22.0503 14.7712 21.9792L11.4848 18.6927L8.19836 21.9792C8.05469 22.1228 7.85985 22.2036 7.65668 22.2036C7.45351 22.2036 7.25866 22.1228 7.115 21.9792C6.97133 21.8355 6.89063 21.6407 6.89063 21.4375C6.89062 21.2343 6.97133 21.0395 7.115 20.8958ZM41.8859 39.2708C42.0295 39.4145 42.1102 39.6093 42.1102 39.8125C42.1102 40.0157 42.0295 40.2105 41.8859 40.3542C41.7422 40.4978 41.5473 40.5786 41.3442 40.5786C41.141 40.5786 40.9462 40.4978 40.8025 40.3542L37.5161 37.0677L34.2296 40.3542C34.0859 40.4978 33.8911 40.5786 33.6879 40.5786C33.4848 40.5786 33.2899 40.4978 33.1462 40.3542C33.0026 40.2105 32.9219 40.0157 32.9219 39.8125C32.9219 39.6093 33.0026 39.4145 33.1462 39.2708L36.4327 35.9844L33.1462 32.6979C33.0026 32.5543 32.9219 32.3594 32.9219 32.1562C32.9219 31.9531 33.0026 31.7582 33.1462 31.6146C33.2899 31.4709 33.4848 31.3902 33.6879 31.3902C33.8911 31.3902 34.0859 31.4709 34.2296 31.6146L37.5161 34.901L40.8025 31.6146C40.8736 31.5434 40.9581 31.487 41.051 31.4485C41.144 31.41 41.2436 31.3902 41.3442 31.3902C41.4448 31.3902 41.5444 31.41 41.6373 31.4485C41.7303 31.487 41.8147 31.5434 41.8859 31.6146C41.957 31.6857 42.0134 31.7702 42.0519 31.8631C42.0904 31.956 42.1102 32.0557 42.1102 32.1562C42.1102 32.2568 42.0904 32.3565 42.0519 32.4494C42.0134 32.5423 41.957 32.6268 41.8859 32.6979L38.5994 35.9844L41.8859 39.2708ZM33.041 21.3916C31.927 25.4111 28.4912 28.8851 24.6861 29.8364C24.6235 29.8519 24.5592 29.8596 24.4947 29.8594C24.3074 29.8607 24.1261 29.7933 23.9852 29.67C23.8442 29.5467 23.7534 29.376 23.7298 29.1902C23.7062 29.0044 23.7516 28.8164 23.8572 28.6617C23.9629 28.5071 24.1216 28.3966 24.3033 28.3511C27.5457 27.5395 30.5948 24.4426 31.5537 20.9839C32.2179 18.5855 32.2332 14.9527 28.541 11.2604L26.7973 9.50523V15.3125C26.7973 15.5156 26.7166 15.7103 26.5731 15.8539C26.4295 15.9975 26.2347 16.0781 26.0317 16.0781C25.8286 16.0781 25.6339 15.9975 25.4903 15.8539C25.3467 15.7103 25.2661 15.5156 25.2661 15.3125V7.65625C25.2661 7.45319 25.3467 7.25845 25.4903 7.11487C25.6339 6.97129 25.8286 6.89062 26.0317 6.89062H33.6879C33.891 6.89062 34.0857 6.97129 34.2293 7.11487C34.3729 7.25845 34.4536 7.45319 34.4536 7.65625C34.4536 7.85931 34.3729 8.05405 34.2293 8.19763C34.0857 8.34121 33.891 8.42188 33.6879 8.42188H27.8807L29.6359 10.1771C32.9223 13.4654 34.1339 17.4486 33.041 21.3916Z" fill="white"/>
</g>
</svg>
