<svg width="20" height="23" viewBox="0 0 20 23" fill="none" xmlns="http://www.w3.org/2000/svg">
<g id="fa6-brands:square-instagram" clip-path="url(#clip0_137_4166)">
<path id="Vector" d="M10 9.06771C9.52907 9.06788 9.06877 9.20801 8.67729 9.47037C8.28582 9.73272 7.98074 10.1055 7.80065 10.5417C7.62055 10.9778 7.57352 11.4576 7.66551 11.9205C7.75749 12.3834 7.98435 12.8086 8.31741 13.1423C8.65047 13.476 9.07477 13.7032 9.53666 13.7952C9.99856 13.8873 10.4773 13.8399 10.9124 13.6593C11.3474 13.4786 11.7193 13.1727 11.9809 12.7802C12.2425 12.3878 12.3821 11.9264 12.3821 11.4544C12.3817 10.8214 12.1305 10.2145 11.6839 9.76695C11.2372 9.31944 10.6316 9.06794 10 9.06771ZM15.5674 7.23319C15.4462 6.92528 15.2631 6.64562 15.0296 6.41155C14.7961 6.17749 14.517 5.99401 14.2098 5.87251C13.2723 5.50158 11.0402 5.58481 10 5.58481C8.95982 5.58481 6.72991 5.49845 5.78973 5.87251C5.48252 5.99401 5.20349 6.17749 4.96996 6.41155C4.73642 6.64562 4.55337 6.92528 4.43214 7.23319C4.0625 8.17282 4.14509 10.4123 4.14509 11.4539C4.14509 12.4956 4.0625 14.7323 4.43393 15.6751C4.55515 15.983 4.73821 16.2627 4.97174 16.4967C5.20528 16.7308 5.4843 16.9143 5.79152 17.0358C6.72902 17.4067 8.96116 17.3235 10.0018 17.3235C11.0424 17.3235 13.2714 17.4098 14.2116 17.0358C14.5188 16.9143 14.7978 16.7308 15.0314 16.4967C15.2649 16.2627 15.448 15.983 15.5692 15.6751C15.942 14.7355 15.8562 12.496 15.8562 11.4544C15.8562 10.4127 15.942 8.1764 15.5692 7.23364L15.5674 7.23319ZM10 15.1234C9.27598 15.1234 8.56822 14.9082 7.96622 14.5051C7.36421 14.1019 6.89501 13.5289 6.61794 12.8584C6.34087 12.188 6.26838 11.4503 6.40963 10.7386C6.55088 10.0269 6.89952 9.37309 7.41148 8.85997C7.92344 8.34685 8.57572 7.9974 9.28583 7.85583C9.99594 7.71426 10.732 7.78692 11.4009 8.06462C12.0698 8.34232 12.6415 8.81259 13.0438 9.41596C13.446 10.0193 13.6607 10.7287 13.6607 11.4544C13.6613 11.9364 13.567 12.4137 13.3833 12.8591C13.1995 13.3046 12.9299 13.7093 12.5898 14.0501C12.2498 14.3909 11.846 14.6611 11.4016 14.8453C10.9572 15.0295 10.4809 15.124 10 15.1234ZM13.8116 8.48782C13.6426 8.48791 13.4773 8.43776 13.3368 8.34371C13.1962 8.24966 13.0866 8.11594 13.0219 7.95946C12.9571 7.80298 12.9401 7.63077 12.9731 7.46461C13.006 7.29846 13.0873 7.14582 13.2068 7.026C13.3263 6.90619 13.4785 6.82458 13.6443 6.7915C13.8101 6.75841 13.9819 6.77535 14.138 6.84015C14.2942 6.90496 14.4277 7.01473 14.5216 7.15557C14.6155 7.29642 14.6656 7.46201 14.6656 7.63141C14.6661 7.74391 14.6444 7.85539 14.6018 7.95946C14.5592 8.06353 14.4965 8.15814 14.4173 8.23787C14.3381 8.31761 14.244 8.38089 14.1404 8.42409C14.0368 8.46728 13.9256 8.48955 13.8134 8.48961L13.8116 8.48782ZM17.8571 1.43164H2.14286C1.57454 1.43164 1.02949 1.65792 0.627628 2.0607C0.225765 2.46347 0 3.00976 0 3.57937L0 19.3294C0 19.899 0.225765 20.4453 0.627628 20.848C1.02949 21.2508 1.57454 21.4771 2.14286 21.4771H17.8571C18.4255 21.4771 18.9705 21.2508 19.3724 20.848C19.7742 20.4453 20 19.899 20 19.3294V3.57937C20 3.00976 19.7742 2.46347 19.3724 2.0607C18.9705 1.65792 18.4255 1.43164 17.8571 1.43164ZM17.0929 14.4075C17.0353 15.5543 16.7741 16.5704 15.9388 17.4054C15.1036 18.2403 14.0906 18.5074 12.9478 18.562C11.7688 18.6287 8.23393 18.6287 7.05491 18.562C5.91071 18.5043 4.90045 18.2421 4.06384 17.4054C3.22723 16.5686 2.96429 15.5521 2.90982 14.4075C2.8433 13.2253 2.8433 9.68204 2.90982 8.50124C2.96741 7.35445 3.22545 6.3383 4.06384 5.50337C4.90223 4.66844 5.91518 4.40445 7.05491 4.34986C8.23393 4.2832 11.7688 4.2832 12.9478 4.34986C14.092 4.40759 15.1054 4.66979 15.9388 5.50651C16.7723 6.34322 17.0384 7.35982 17.0929 8.50661C17.1594 9.68428 17.1594 13.2245 17.0929 14.4075Z" fill="#00D6FB"/>
</g>
<defs>
<clipPath id="clip0_137_4166">
<rect width="20" height="22.9091" fill="white"/>
</clipPath>
</defs>
</svg>
