<svg width="20" height="21" viewBox="0 0 20 21" fill="none" xmlns="http://www.w3.org/2000/svg">
<g id="icomoon-free:linkedin" clip-path="url(#clip0_137_4164)">
<path id="Vector" d="M18.125 0.454102H1.875C0.84375 0.454102 0 1.29785 0 2.3291V18.5791C0 19.6104 0.84375 20.4541 1.875 20.4541H18.125C19.1562 20.4541 20 19.6104 20 18.5791V2.3291C20 1.29785 19.1562 0.454102 18.125 0.454102ZM7.5 16.7041H5V7.9541H7.5V16.7041ZM6.25 6.7041C5.91848 6.7041 5.60054 6.57241 5.36612 6.33799C5.1317 6.10356 5 5.78562 5 5.4541C5 5.12258 5.1317 4.80464 5.36612 4.57022C5.60054 4.3358 5.91848 4.2041 6.25 4.2041C6.58152 4.2041 6.89946 4.3358 7.13388 4.57022C7.3683 4.80464 7.5 5.12258 7.5 5.4541C7.5 5.78562 7.3683 6.10356 7.13388 6.33799C6.89946 6.57241 6.58152 6.7041 6.25 6.7041ZM16.25 16.7041H13.75V11.7041C13.75 11.3726 13.6183 11.0546 13.3839 10.8202C13.1495 10.5858 12.8315 10.4541 12.5 10.4541C12.1685 10.4541 11.8505 10.5858 11.6161 10.8202C11.3817 11.0546 11.25 11.3726 11.25 11.7041V16.7041H8.75V7.9541H11.25V9.50535C11.765 8.79785 12.555 7.9541 13.4375 7.9541C14.9925 7.9541 16.25 9.35285 16.25 11.0791V16.7041Z" fill="#00D6FB"/>
</g>
<defs>
<clipPath id="clip0_137_4164">
<rect width="20" height="20" fill="white" transform="translate(0 0.454102)"/>
</clipPath>
</defs>
</svg>
