<svg width="40" height="40" viewBox="0 0 40 40" fill="none" xmlns="http://www.w3.org/2000/svg">
<g id="iconoir:design-nib">
<g id="Group">
<path id="Vector" d="M5.49413 34.3369L16.1008 23.7302M29.4575 19.0136L26.2825 28.5385C26.2318 28.6912 26.145 28.8294 26.0296 28.9414C25.9141 29.0534 25.7733 29.1359 25.6191 29.1819L6.1558 34.9669C5.98045 35.019 5.79417 35.0219 5.61725 34.9755C5.44032 34.9291 5.27952 34.835 5.15234 34.7035C5.02516 34.5721 4.93648 34.4082 4.89595 34.2298C4.85542 34.0515 4.86459 33.8654 4.92246 33.6919L11.2425 14.7352C11.2878 14.5991 11.3618 14.4743 11.4596 14.3694C11.5574 14.2644 11.6766 14.1817 11.8091 14.1269L20.7875 10.4302C20.97 10.3548 21.1708 10.3352 21.3644 10.3737C21.5581 10.4123 21.7361 10.5073 21.8758 10.6469L29.2158 17.9886C29.3474 18.12 29.4398 18.2856 29.4825 18.4667C29.5252 18.6477 29.5165 18.8371 29.4575 19.0136Z" stroke="white" stroke-width="1.5" stroke-linecap="round" stroke-linejoin="round"/>
<path id="Vector_2" d="M29.6532 18.4271L34.3666 13.7121C34.9915 13.087 35.3425 12.2394 35.3425 11.3555C35.3425 10.4716 34.9915 9.6239 34.3666 8.99881L30.8332 5.46214C30.5237 5.15247 30.1562 4.90682 29.7517 4.73922C29.3471 4.57162 28.9136 4.48535 28.4757 4.48535C28.0379 4.48535 27.6043 4.57162 27.1998 4.73922C26.7953 4.90682 26.4278 5.15247 26.1182 5.46214L21.4049 10.1771M19.6349 20.1938C19.4027 19.9617 19.127 19.7776 18.8236 19.652C18.5203 19.5264 18.1951 19.4619 17.8668 19.4619C17.5385 19.462 17.2134 19.5268 16.9101 19.6525C16.6068 19.7782 16.3312 19.9624 16.0991 20.1946C15.867 20.4269 15.6829 20.7025 15.5573 21.0059C15.4317 21.3093 15.3671 21.6344 15.3672 21.9627C15.3673 22.2911 15.432 22.6162 15.5577 22.9195C15.6834 23.2228 15.8677 23.4984 16.0999 23.7305C16.5689 24.1992 17.2049 24.4625 17.868 24.4624C18.5311 24.4622 19.167 24.1986 19.6357 23.7296C20.1045 23.2607 20.3678 22.6246 20.3676 21.9616C20.3675 21.2985 20.1039 20.6626 19.6349 20.1938Z" stroke="white" stroke-width="1.5" stroke-linecap="round" stroke-linejoin="round"/>
</g>
</g>
</svg>
