<svg id="Group_9" data-name="Group 9" xmlns="http://www.w3.org/2000/svg" width="34" height="34" viewBox="0 0 34 34">
  <g id="Ellipse_1" data-name="Ellipse 1" fill="none" stroke="#fff" stroke-width="1">
    <circle cx="17" cy="17" r="17" stroke="none"/>
    <circle cx="17" cy="17" r="16.5" fill="none"/>
  </g>
  <g id="Icon_feather-arrow-left" data-name="Icon feather-arrow-left" transform="translate(11 14)">
    <path id="Path_6" data-name="Path 6" d="M7.5,18.5H18.225a.5.5,0,0,0,0-1H7.5a.5.5,0,0,0,0,1Z" transform="translate(-7 -14.751)" fill="#fff"/>
    <path id="Path_7" data-name="Path 7" d="M7.5,13.5a.5.5,0,0,0,.354-.146L10.6,10.6a.5.5,0,0,0,0-.707L7.854,7.146a.5.5,0,0,0-.707.707l2.4,2.4-2.4,2.4A.5.5,0,0,0,7.5,13.5Z" transform="translate(1.25 -7)" fill="#fff"/>
  </g>
</svg>
